<svg width="21" height="15" viewBox="0 0 21 15" fill="none" xmlns="http://www.w3.org/2000/svg">
  <path d="M13.3536 14.8818L13.1201 14.6441C12.9653 14.4865 12.9653 14.231 13.1201 14.0734L19.0148 8.07161H0.396297C0.177443 8.07161 0 7.89094 0 7.66811V7.33186C0 7.10903 0.177443 6.92836 0.396297 6.92836H19.0148L13.1201 0.926547C12.9653 0.768981 12.9653 0.5135 13.1201 0.355901L13.3536 0.118174C13.5084 -0.0393914 13.7593 -0.0393914 13.914 0.118174L20.8839 7.21468C21.0387 7.37224 21.0387 7.62773 20.8839 7.78533L13.914 14.8818C13.7593 15.0394 13.5084 15.0394 13.3536 14.8818Z" fill="#177CBA"/>
</svg>
