<svg width="15" height="15" viewBox="0 0 15 15" fill="none" xmlns="http://www.w3.org/2000/svg">
  <path fill-rule="evenodd" clip-rule="evenodd" d="M7.38769 0.825562C3.50885 0.825562 0.36615 3.96839 0.36615 7.84737C0.36615 11.7264 3.50885 14.8692 7.38769 14.8692C11.2665 14.8692 14.4092 11.7264 14.4092 7.84737C14.4092 3.96839 11.2665 0.825562 7.38769 0.825562ZM13.5032 7.84737C13.5032 11.2082 10.7824 13.9631 7.38769 13.9631C4.02698 13.9631 1.27215 11.2422 1.27215 7.84737C1.27215 4.48653 3.993 1.7316 7.38769 1.7316C10.7484 1.7316 13.5032 4.45255 13.5032 7.84737ZM6.98848 8.67696L9.28747 10.3475C9.44036 10.4579 9.6527 10.4239 9.76312 10.2739L9.99528 9.95391C10.1057 9.80102 10.0746 9.58866 9.92167 9.47824L7.92563 8.02574V3.88345C7.92563 3.69657 7.77274 3.54368 7.58588 3.54368H7.1895C7.00264 3.54368 6.84975 3.69657 6.84975 3.88345V8.40232C6.84975 8.50991 6.90071 8.61184 6.98848 8.67696Z" fill="#5D7888"/>
</svg>
